<svg xmlns="http://www.w3.org/2000/svg" xmlns:xlink="http://www.w3.org/1999/xlink" id="terminal" baseProfile="full" viewBox="0 0 640 410" width="640" version="1.1">
    <defs>
        <termtosvg:template_settings xmlns:termtosvg="https://github.com/nbedos/termtosvg">
            <termtosvg:screen_geometry columns="80" rows="24"/>
            <termtosvg:animation type="css"/>
        </termtosvg:template_settings>
        <style type="text/css" id="generated-style"><![CDATA[#screen {
                font-family: 'DejaVu Sans Mono', monospace;
                font-style: normal;
                font-size: 14px;
            }

        text {
            dominant-baseline: text-before-edge;
            white-space: pre;
        }
    
            :root {
                --animation-duration: 9038ms;
            }

            @keyframes roll {
                0.000%{transform:translateY(0px)}
22.129%{transform:translateY(-442px)}
22.671%{transform:translateY(-884px)}
25.006%{transform:translateY(-1326px)}
25.647%{transform:translateY(-1768px)}
25.758%{transform:translateY(-2210px)}
25.780%{transform:translateY(-2652px)}
25.846%{transform:translateY(-3094px)}
41.049%{transform:translateY(-3536px)}
43.029%{transform:translateY(-3978px)}
44.601%{transform:translateY(-4420px)}
45.264%{transform:translateY(-4862px)}
45.508%{transform:translateY(-5304px)}
46.116%{transform:translateY(-5746px)}
46.404%{transform:translateY(-6188px)}
47.046%{transform:translateY(-6630px)}
47.267%{transform:translateY(-7072px)}
48.053%{transform:translateY(-7514px)}
52.512%{transform:translateY(-7956px)}
53.098%{transform:translateY(-8398px)}
66.077%{transform:translateY(-8840px)}
66.641%{transform:translateY(-9282px)}
66.751%{transform:translateY(-9724px)}
66.807%{transform:translateY(-10166px)}
100.000%{transform:translateY(-10166px)}
            }

            #screen_view {
                animation-duration: 9038ms;
                animation-iteration-count:infinite;
                animation-name:roll;
                animation-timing-function: steps(1,end);
                animation-fill-mode: forwards;
            }
        ]]></style>
        <style type="text/css" id="user-style">
            /* The colors defined below are the default 16 colors used for rendering text of the terminal. Adjust
               them as needed.
               PowerShell colors based on https://en.wikipedia.org/wiki/ANSI_escape_code#Colors */
            .foreground {fill: #cccccc;}
            .background {fill: #0c0c0c;}
            .color0 {fill: #0c0c0c;}
            .color1 {fill: #c50f1f;}
            .color2 {fill: #13a10e;}
            .color3 {fill: #c19c00;}
            .color4 {fill: #0037da;}
            .color5 {fill: #881798;}
            .color6 {fill: #3a96dd;}
            .color7 {fill: #cccccc;}
            .color8 {fill: #767676;}
            .color9 {fill: #e74856;}
            .color10 {fill: #16c60c;}
            .color11 {fill: #f9f1a5;}
            .color12 {fill: #3b78ff;}
            .color13 {fill: #b4009e;}
            .color14 {fill: #61d6d6;}
            .color15 {fill: #f2f2f2;}
        </style>
    </defs>
    <svg id="screen" width="640" height="408" viewBox="0 0 640 408" preserveAspectRatio="xMidYMin slice">
    <rect class="background" height="100%" width="100%" x="0" y="0"/><defs><g id="g1"><text x="0" textLength="240" class="foreground">root@539a377acd78:/demo-soft# </text><text x="240" textLength="8" class="background"> </text><text x="248" textLength="392" class="foreground">                                                 </text></g><g id="g2"><text x="0" textLength="360" class="foreground">root@539a377acd78:/demo-soft# SKIP=shellcheck</text><text x="360" textLength="8" class="background"> </text><text x="368" textLength="272" class="foreground">                                  </text></g><g id="g3"><text x="0" textLength="600" class="foreground">root@539a377acd78:/demo-soft# git commit -m "attempt to add bad-script.sh" </text><text x="600" textLength="8" class="background"> </text><text x="608" textLength="32" class="foreground">    </text></g><g id="g4"><text x="0" textLength="640" class="foreground">root@539a377acd78:/demo-soft# git commit -m "attempt to add bad-script.sh"      </text></g><g id="g5"><text x="0" textLength="8" class="background"> </text></g><g id="g6"><text x="0" textLength="72" class="color0">[WARNING]</text><text x="72" textLength="568" class="foreground"> normalizing pre-commit configuration to a top-level map.  support for </text></g><g id="g7"><text x="0" textLength="640" class="foreground">top level list will be removed in a future version.  run: `pre-commit migrate-co</text></g><g id="g8"><text x="0" textLength="256" class="foreground">nfig` to automatically fix this.</text></g><g id="g9"><text x="0" textLength="584" class="foreground">shellcheck...............................................................</text><text x="584" textLength="8" class="background"> </text></g><g id="g10"><text x="0" textLength="632" class="foreground">shellcheck...............................................................Failed</text></g><g id="g11"><text x="0" textLength="168" class="foreground">- hook id: shellcheck</text></g><g id="g12"><text x="0" textLength="112" class="foreground">- exit code: 1</text></g><g id="g13"><text x="0" textLength="192" font-weight="bold" class="foreground">In bad-script.sh line 2:</text></g><g id="g14"><text x="0" textLength="56" class="foreground">echo $1</text></g><g id="g15"><text x="0" textLength="608" class="color2">     ^-- SC2086 (info): Double quote to prevent globbing and word splitting.</text></g><g id="g16"><text x="0" textLength="112" font-weight="bold" class="foreground">Did you mean: </text></g><g id="g17"><text x="0" textLength="72" class="foreground">echo "$1"</text></g><g id="g18"><text x="0" textLength="168" class="foreground">For more information:</text></g><g id="g19"><text x="0" textLength="640" class="foreground">  https://www.shellcheck.net/wiki/SC2086 -- Double quote to prevent globbing ...</text></g><g id="g20"><text x="0" textLength="240" class="foreground">root@539a377acd78:/demo-soft# </text><text x="240" textLength="8" class="background"> </text></g><g id="g21"><text x="0" textLength="360" class="foreground">root@539a377acd78:/demo-soft# SKIP=shellcheck</text><text x="360" textLength="8" class="background"> </text><text x="368" textLength="40" class="foreground">     </text></g><g id="g22"><text x="0" textLength="240" class="foreground">root@539a377acd78:/demo-soft# </text><text x="240" textLength="8" class="background">S</text><text x="248" textLength="160" class="foreground">KIP=shellcheck      </text></g><g id="g23"><text x="0" textLength="248" class="foreground">root@539a377acd78:/demo-soft# e</text><text x="248" textLength="8" class="background">S</text><text x="256" textLength="392" class="foreground">KIP=shellcheck                                   </text></g><g id="g24"><text x="0" textLength="256" class="foreground">root@539a377acd78:/demo-soft# ex</text><text x="256" textLength="8" class="background">S</text><text x="264" textLength="384" class="foreground">KIP=shellcheck                                  </text></g><g id="g25"><text x="0" textLength="264" class="foreground">root@539a377acd78:/demo-soft# exp</text><text x="264" textLength="8" class="background">S</text><text x="272" textLength="376" class="foreground">KIP=shellcheck                                 </text></g><g id="g26"><text x="0" textLength="272" class="foreground">root@539a377acd78:/demo-soft# expo</text><text x="272" textLength="8" class="background">S</text><text x="280" textLength="368" class="foreground">KIP=shellcheck                                </text></g><g id="g27"><text x="0" textLength="280" class="foreground">root@539a377acd78:/demo-soft# expor</text><text x="280" textLength="8" class="background">S</text><text x="288" textLength="360" class="foreground">KIP=shellcheck                               </text></g><g id="g28"><text x="0" textLength="288" class="foreground">root@539a377acd78:/demo-soft# export</text><text x="288" textLength="8" class="background">S</text><text x="296" textLength="352" class="foreground">KIP=shellcheck                              </text></g><g id="g29"><text x="0" textLength="296" class="foreground">root@539a377acd78:/demo-soft# export </text><text x="296" textLength="8" class="background">S</text><text x="304" textLength="344" class="foreground">KIP=shellcheck                             </text></g><g id="g30"><text x="0" textLength="648" class="foreground">root@539a377acd78:/demo-soft# export SKIP=shellcheck                             </text></g><g id="g31"><text x="0" textLength="416" class="foreground">root@539a377acd78:/demo-soft# export SKIP=shellcheck</text><text x="416" textLength="8" class="background"> </text></g><g id="g32"><text x="0" textLength="600" class="foreground">root@539a377acd78:/demo-soft# git commit -m "attempt to add bad-script.sh" </text><text x="600" textLength="8" class="background"> </text></g><g id="g33"><text x="0" textLength="600" class="foreground">root@539a377acd78:/demo-soft# git commit -m "attempt to add bad-script.sh" </text></g><g id="g34"><text x="0" textLength="576" class="foreground">shellcheck..............................................................</text><text x="576" textLength="56" class="color0">Skipped</text></g><g id="g35"><text x="0" textLength="352" class="foreground">[devel d657303] attempt to add bad-script.sh</text></g><g id="g36"><text x="0" textLength="256" class="foreground"> 1 file changed, 2 insertions(+)</text></g><g id="g37"><text x="0" textLength="264" class="foreground"> create mode 100644 bad-script.sh</text></g></defs><g id="screen_view"><g><rect x="240" y="0" width="8" height="17" class="foreground"/><use xlink:href="#g1" y="0"/></g><g><rect x="360" y="442" width="8" height="17" class="foreground"/><use xlink:href="#g2" y="442"/></g><g><rect x="600" y="884" width="8" height="17" class="foreground"/><use xlink:href="#g3" y="884"/></g><g><use xlink:href="#g4" y="1326"/><rect x="0" y="1343" width="8" height="17" class="foreground"/><use xlink:href="#g5" y="1343"/></g><g><use xlink:href="#g4" y="1768"/><rect x="0" y="1785" width="72" height="17" class="color3"/><use xlink:href="#g6" y="1785"/><use xlink:href="#g7" y="1802"/><use xlink:href="#g8" y="1819"/><rect x="0" y="1836" width="8" height="17" class="foreground"/><use xlink:href="#g5" y="1836"/></g><g><use xlink:href="#g4" y="2210"/><rect x="0" y="2227" width="72" height="17" class="color3"/><use xlink:href="#g6" y="2227"/><use xlink:href="#g7" y="2244"/><use xlink:href="#g8" y="2261"/><rect x="584" y="2278" width="8" height="17" class="foreground"/><use xlink:href="#g9" y="2278"/></g><g><use xlink:href="#g4" y="2652"/><rect x="0" y="2669" width="72" height="17" class="color3"/><use xlink:href="#g6" y="2669"/><use xlink:href="#g7" y="2686"/><use xlink:href="#g8" y="2703"/><rect x="584" y="2720" width="48" height="17" class="color1"/><use xlink:href="#g10" y="2720"/><use xlink:href="#g11" y="2737"/><use xlink:href="#g12" y="2754"/><use xlink:href="#g13" y="2788"/><use xlink:href="#g14" y="2805"/><use xlink:href="#g15" y="2822"/><use xlink:href="#g16" y="2856"/><use xlink:href="#g17" y="2873"/><use xlink:href="#g18" y="2907"/><use xlink:href="#g19" y="2924"/><rect x="0" y="2958" width="8" height="17" class="foreground"/><use xlink:href="#g5" y="2958"/></g><g><use xlink:href="#g4" y="3094"/><rect x="0" y="3111" width="72" height="17" class="color3"/><use xlink:href="#g6" y="3111"/><use xlink:href="#g7" y="3128"/><use xlink:href="#g8" y="3145"/><rect x="584" y="3162" width="48" height="17" class="color1"/><use xlink:href="#g10" y="3162"/><use xlink:href="#g11" y="3179"/><use xlink:href="#g12" y="3196"/><use xlink:href="#g13" y="3230"/><use xlink:href="#g14" y="3247"/><use xlink:href="#g15" y="3264"/><use xlink:href="#g16" y="3298"/><use xlink:href="#g17" y="3315"/><use xlink:href="#g18" y="3349"/><use xlink:href="#g19" y="3366"/><rect x="240" y="3400" width="8" height="17" class="foreground"/><use xlink:href="#g20" y="3400"/></g><g><use xlink:href="#g4" y="3536"/><rect x="0" y="3553" width="72" height="17" class="color3"/><use xlink:href="#g6" y="3553"/><use xlink:href="#g7" y="3570"/><use xlink:href="#g8" y="3587"/><rect x="584" y="3604" width="48" height="17" class="color1"/><use xlink:href="#g10" y="3604"/><use xlink:href="#g11" y="3621"/><use xlink:href="#g12" y="3638"/><use xlink:href="#g13" y="3672"/><use xlink:href="#g14" y="3689"/><use xlink:href="#g15" y="3706"/><use xlink:href="#g16" y="3740"/><use xlink:href="#g17" y="3757"/><use xlink:href="#g18" y="3791"/><use xlink:href="#g19" y="3808"/><rect x="360" y="3842" width="8" height="17" class="foreground"/><use xlink:href="#g21" y="3842"/></g><g><use xlink:href="#g4" y="3978"/><rect x="0" y="3995" width="72" height="17" class="color3"/><use xlink:href="#g6" y="3995"/><use xlink:href="#g7" y="4012"/><use xlink:href="#g8" y="4029"/><rect x="584" y="4046" width="48" height="17" class="color1"/><use xlink:href="#g10" y="4046"/><use xlink:href="#g11" y="4063"/><use xlink:href="#g12" y="4080"/><use xlink:href="#g13" y="4114"/><use xlink:href="#g14" y="4131"/><use xlink:href="#g15" y="4148"/><use xlink:href="#g16" y="4182"/><use xlink:href="#g17" y="4199"/><use xlink:href="#g18" y="4233"/><use xlink:href="#g19" y="4250"/><rect x="240" y="4284" width="8" height="17" class="foreground"/><use xlink:href="#g22" y="4284"/></g><g><use xlink:href="#g4" y="4420"/><rect x="0" y="4437" width="72" height="17" class="color3"/><use xlink:href="#g6" y="4437"/><use xlink:href="#g7" y="4454"/><use xlink:href="#g8" y="4471"/><rect x="584" y="4488" width="48" height="17" class="color1"/><use xlink:href="#g10" y="4488"/><use xlink:href="#g11" y="4505"/><use xlink:href="#g12" y="4522"/><use xlink:href="#g13" y="4556"/><use xlink:href="#g14" y="4573"/><use xlink:href="#g15" y="4590"/><use xlink:href="#g16" y="4624"/><use xlink:href="#g17" y="4641"/><use xlink:href="#g18" y="4675"/><use xlink:href="#g19" y="4692"/><rect x="248" y="4726" width="8" height="17" class="foreground"/><use xlink:href="#g23" y="4726"/></g><g><use xlink:href="#g4" y="4862"/><rect x="0" y="4879" width="72" height="17" class="color3"/><use xlink:href="#g6" y="4879"/><use xlink:href="#g7" y="4896"/><use xlink:href="#g8" y="4913"/><rect x="584" y="4930" width="48" height="17" class="color1"/><use xlink:href="#g10" y="4930"/><use xlink:href="#g11" y="4947"/><use xlink:href="#g12" y="4964"/><use xlink:href="#g13" y="4998"/><use xlink:href="#g14" y="5015"/><use xlink:href="#g15" y="5032"/><use xlink:href="#g16" y="5066"/><use xlink:href="#g17" y="5083"/><use xlink:href="#g18" y="5117"/><use xlink:href="#g19" y="5134"/><rect x="256" y="5168" width="8" height="17" class="foreground"/><use xlink:href="#g24" y="5168"/></g><g><use xlink:href="#g4" y="5304"/><rect x="0" y="5321" width="72" height="17" class="color3"/><use xlink:href="#g6" y="5321"/><use xlink:href="#g7" y="5338"/><use xlink:href="#g8" y="5355"/><rect x="584" y="5372" width="48" height="17" class="color1"/><use xlink:href="#g10" y="5372"/><use xlink:href="#g11" y="5389"/><use xlink:href="#g12" y="5406"/><use xlink:href="#g13" y="5440"/><use xlink:href="#g14" y="5457"/><use xlink:href="#g15" y="5474"/><use xlink:href="#g16" y="5508"/><use xlink:href="#g17" y="5525"/><use xlink:href="#g18" y="5559"/><use xlink:href="#g19" y="5576"/><rect x="264" y="5610" width="8" height="17" class="foreground"/><use xlink:href="#g25" y="5610"/></g><g><use xlink:href="#g4" y="5746"/><rect x="0" y="5763" width="72" height="17" class="color3"/><use xlink:href="#g6" y="5763"/><use xlink:href="#g7" y="5780"/><use xlink:href="#g8" y="5797"/><rect x="584" y="5814" width="48" height="17" class="color1"/><use xlink:href="#g10" y="5814"/><use xlink:href="#g11" y="5831"/><use xlink:href="#g12" y="5848"/><use xlink:href="#g13" y="5882"/><use xlink:href="#g14" y="5899"/><use xlink:href="#g15" y="5916"/><use xlink:href="#g16" y="5950"/><use xlink:href="#g17" y="5967"/><use xlink:href="#g18" y="6001"/><use xlink:href="#g19" y="6018"/><rect x="272" y="6052" width="8" height="17" class="foreground"/><use xlink:href="#g26" y="6052"/></g><g><use xlink:href="#g4" y="6188"/><rect x="0" y="6205" width="72" height="17" class="color3"/><use xlink:href="#g6" y="6205"/><use xlink:href="#g7" y="6222"/><use xlink:href="#g8" y="6239"/><rect x="584" y="6256" width="48" height="17" class="color1"/><use xlink:href="#g10" y="6256"/><use xlink:href="#g11" y="6273"/><use xlink:href="#g12" y="6290"/><use xlink:href="#g13" y="6324"/><use xlink:href="#g14" y="6341"/><use xlink:href="#g15" y="6358"/><use xlink:href="#g16" y="6392"/><use xlink:href="#g17" y="6409"/><use xlink:href="#g18" y="6443"/><use xlink:href="#g19" y="6460"/><rect x="280" y="6494" width="8" height="17" class="foreground"/><use xlink:href="#g27" y="6494"/></g><g><use xlink:href="#g4" y="6630"/><rect x="0" y="6647" width="72" height="17" class="color3"/><use xlink:href="#g6" y="6647"/><use xlink:href="#g7" y="6664"/><use xlink:href="#g8" y="6681"/><rect x="584" y="6698" width="48" height="17" class="color1"/><use xlink:href="#g10" y="6698"/><use xlink:href="#g11" y="6715"/><use xlink:href="#g12" y="6732"/><use xlink:href="#g13" y="6766"/><use xlink:href="#g14" y="6783"/><use xlink:href="#g15" y="6800"/><use xlink:href="#g16" y="6834"/><use xlink:href="#g17" y="6851"/><use xlink:href="#g18" y="6885"/><use xlink:href="#g19" y="6902"/><rect x="288" y="6936" width="8" height="17" class="foreground"/><use xlink:href="#g28" y="6936"/></g><g><use xlink:href="#g4" y="7072"/><rect x="0" y="7089" width="72" height="17" class="color3"/><use xlink:href="#g6" y="7089"/><use xlink:href="#g7" y="7106"/><use xlink:href="#g8" y="7123"/><rect x="584" y="7140" width="48" height="17" class="color1"/><use xlink:href="#g10" y="7140"/><use xlink:href="#g11" y="7157"/><use xlink:href="#g12" y="7174"/><use xlink:href="#g13" y="7208"/><use xlink:href="#g14" y="7225"/><use xlink:href="#g15" y="7242"/><use xlink:href="#g16" y="7276"/><use xlink:href="#g17" y="7293"/><use xlink:href="#g18" y="7327"/><use xlink:href="#g19" y="7344"/><rect x="296" y="7378" width="8" height="17" class="foreground"/><use xlink:href="#g29" y="7378"/></g><g><use xlink:href="#g4" y="7514"/><rect x="0" y="7531" width="72" height="17" class="color3"/><use xlink:href="#g6" y="7531"/><use xlink:href="#g7" y="7548"/><use xlink:href="#g8" y="7565"/><rect x="584" y="7582" width="48" height="17" class="color1"/><use xlink:href="#g10" y="7582"/><use xlink:href="#g11" y="7599"/><use xlink:href="#g12" y="7616"/><use xlink:href="#g13" y="7650"/><use xlink:href="#g14" y="7667"/><use xlink:href="#g15" y="7684"/><use xlink:href="#g16" y="7718"/><use xlink:href="#g17" y="7735"/><use xlink:href="#g18" y="7769"/><use xlink:href="#g19" y="7786"/><use xlink:href="#g30" y="7820"/><rect x="240" y="7837" width="8" height="17" class="foreground"/><use xlink:href="#g20" y="7837"/></g><g><use xlink:href="#g4" y="7956"/><rect x="0" y="7973" width="72" height="17" class="color3"/><use xlink:href="#g6" y="7973"/><use xlink:href="#g7" y="7990"/><use xlink:href="#g8" y="8007"/><rect x="584" y="8024" width="48" height="17" class="color1"/><use xlink:href="#g10" y="8024"/><use xlink:href="#g11" y="8041"/><use xlink:href="#g12" y="8058"/><use xlink:href="#g13" y="8092"/><use xlink:href="#g14" y="8109"/><use xlink:href="#g15" y="8126"/><use xlink:href="#g16" y="8160"/><use xlink:href="#g17" y="8177"/><use xlink:href="#g18" y="8211"/><use xlink:href="#g19" y="8228"/><use xlink:href="#g30" y="8262"/><rect x="416" y="8279" width="8" height="17" class="foreground"/><use xlink:href="#g31" y="8279"/></g><g><use xlink:href="#g4" y="8398"/><rect x="0" y="8415" width="72" height="17" class="color3"/><use xlink:href="#g6" y="8415"/><use xlink:href="#g7" y="8432"/><use xlink:href="#g8" y="8449"/><rect x="584" y="8466" width="48" height="17" class="color1"/><use xlink:href="#g10" y="8466"/><use xlink:href="#g11" y="8483"/><use xlink:href="#g12" y="8500"/><use xlink:href="#g13" y="8534"/><use xlink:href="#g14" y="8551"/><use xlink:href="#g15" y="8568"/><use xlink:href="#g16" y="8602"/><use xlink:href="#g17" y="8619"/><use xlink:href="#g18" y="8653"/><use xlink:href="#g19" y="8670"/><use xlink:href="#g30" y="8704"/><rect x="600" y="8721" width="8" height="17" class="foreground"/><use xlink:href="#g32" y="8721"/></g><g><use xlink:href="#g4" y="8840"/><rect x="0" y="8857" width="72" height="17" class="color3"/><use xlink:href="#g6" y="8857"/><use xlink:href="#g7" y="8874"/><use xlink:href="#g8" y="8891"/><rect x="584" y="8908" width="48" height="17" class="color1"/><use xlink:href="#g10" y="8908"/><use xlink:href="#g11" y="8925"/><use xlink:href="#g12" y="8942"/><use xlink:href="#g13" y="8976"/><use xlink:href="#g14" y="8993"/><use xlink:href="#g15" y="9010"/><use xlink:href="#g16" y="9044"/><use xlink:href="#g17" y="9061"/><use xlink:href="#g18" y="9095"/><use xlink:href="#g19" y="9112"/><use xlink:href="#g30" y="9146"/><use xlink:href="#g33" y="9163"/><rect x="0" y="9180" width="8" height="17" class="foreground"/><use xlink:href="#g5" y="9180"/></g><g><use xlink:href="#g4" y="9282"/><rect x="0" y="9299" width="72" height="17" class="color3"/><use xlink:href="#g6" y="9299"/><use xlink:href="#g7" y="9316"/><use xlink:href="#g8" y="9333"/><rect x="584" y="9350" width="48" height="17" class="color1"/><use xlink:href="#g10" y="9350"/><use xlink:href="#g11" y="9367"/><use xlink:href="#g12" y="9384"/><use xlink:href="#g13" y="9418"/><use xlink:href="#g14" y="9435"/><use xlink:href="#g15" y="9452"/><use xlink:href="#g16" y="9486"/><use xlink:href="#g17" y="9503"/><use xlink:href="#g18" y="9537"/><use xlink:href="#g19" y="9554"/><use xlink:href="#g30" y="9588"/><use xlink:href="#g33" y="9605"/><rect x="0" y="9622" width="72" height="17" class="color3"/><use xlink:href="#g6" y="9622"/><use xlink:href="#g7" y="9639"/><use xlink:href="#g8" y="9656"/><rect x="0" y="9673" width="8" height="17" class="foreground"/><use xlink:href="#g5" y="9673"/></g><g><rect x="0" y="9724" width="72" height="17" class="color3"/><use xlink:href="#g6" y="9724"/><use xlink:href="#g7" y="9741"/><use xlink:href="#g8" y="9758"/><rect x="584" y="9775" width="48" height="17" class="color1"/><use xlink:href="#g10" y="9775"/><use xlink:href="#g11" y="9792"/><use xlink:href="#g12" y="9809"/><use xlink:href="#g13" y="9843"/><use xlink:href="#g14" y="9860"/><use xlink:href="#g15" y="9877"/><use xlink:href="#g16" y="9911"/><use xlink:href="#g17" y="9928"/><use xlink:href="#g18" y="9962"/><use xlink:href="#g19" y="9979"/><use xlink:href="#g30" y="10013"/><use xlink:href="#g33" y="10030"/><rect x="0" y="10047" width="72" height="17" class="color3"/><use xlink:href="#g6" y="10047"/><use xlink:href="#g7" y="10064"/><use xlink:href="#g8" y="10081"/><rect x="576" y="10098" width="56" height="17" class="color3"/><use xlink:href="#g34" y="10098"/><rect x="0" y="10115" width="8" height="17" class="foreground"/><use xlink:href="#g5" y="10115"/></g><g><rect x="584" y="10166" width="48" height="17" class="color1"/><use xlink:href="#g10" y="10166"/><use xlink:href="#g11" y="10183"/><use xlink:href="#g12" y="10200"/><use xlink:href="#g13" y="10234"/><use xlink:href="#g14" y="10251"/><use xlink:href="#g15" y="10268"/><use xlink:href="#g16" y="10302"/><use xlink:href="#g17" y="10319"/><use xlink:href="#g18" y="10353"/><use xlink:href="#g19" y="10370"/><use xlink:href="#g30" y="10404"/><use xlink:href="#g33" y="10421"/><rect x="0" y="10438" width="72" height="17" class="color3"/><use xlink:href="#g6" y="10438"/><use xlink:href="#g7" y="10455"/><use xlink:href="#g8" y="10472"/><rect x="576" y="10489" width="56" height="17" class="color3"/><use xlink:href="#g34" y="10489"/><use xlink:href="#g35" y="10506"/><use xlink:href="#g36" y="10523"/><use xlink:href="#g37" y="10540"/><rect x="240" y="10557" width="8" height="17" class="foreground"/><use xlink:href="#g20" y="10557"/></g></g></svg>
</svg>